<svg version="1.0" xmlns="http://www.w3.org/2000/svg" width="500" height="500" viewBox="0 0 500 500">
  <rect width="500" height="500" rx="60" fill="#ffffff"/>
  <g transform="translate(0,500) scale(0.1,-0.1)" fill="#000000" stroke="none">
    <path d="M3110 3848 c-25 -5 -58 -10 -75 -11 -17 -2 -29 -8 -28 -15 2 -8 -4 -9 -23 -2 -15 6 -23 6 -19 1 3 -6 -3 -9 -13 -8 -24 1 -83 -23 -77 -33 3 -4 -3 -7 -13 -6 -9 0 -16 -4 -15 -10 1 -7 -6 -10 -18 -7 -11 3 -28 -2 -38 -12 -11 -9 -27 -18 -36 -19 -9 -1 -24 -9 -33 -17 -10 -9 -24 -13 -32 -11 -13 5 -13 3 -1 -11 14 -18 2 -24 -15 -7 -7 7 -17 3 -29 -12 -11 -13 -13 -17 -5 -10 8 6 18 12 24 12 5 0 1 -6 -9 -14 -11 -8 -23 -12 -27 -10 -9 6 -83 -40 -94 -58 -5 -8 -1 -8 12 2 17 14 18 13 7 -1 -7 -9 -9 -19 -5 -24 4 -4 -2 -3 -14 3 -25 13 -69 -11 -60 -34 3 -8 0 -11 -9 -8 -8 3 -21 -6 -30 -20 -10 -14 -21 -24 -25 -21 -4 3 -13 -9 -20 -25 -7 -17 -17 -33 -22 -36 -6 -4 -5 3 1 15 14 25 8 27 -14 5 -12 -13 -13 -19 -4 -30 9 -11 9 -13 -2 -9 -8 3 -29 -9 -46 -25 -35 -32 -47 -63 -15 -39 15 13 16 12 3 -4 -8 -10 -20 -16 -27 -13 -16 6 -38 -19 -29 -33 3 -6 0 -8 -8 -5 -8 3 -18 0 -23 -7 -4 -7 -3 -10 3 -6 5 3 10 0 10 -7 0 -8 -6 -12 -13 -9 -8 3 -19 -6 -25 -21 -7 -14 -16 -26 -20 -26 -5 0 -6 -6 -3 -13 3 -8 -3 -20 -13 -28 -17 -13 -17 -13 -3 6 14 19 14 19 -3 6 -10 -8 -16 -20 -13 -28 3 -7 2 -13 -3 -13 -8 0 -24 -37 -22 -52 0 -4 -6 -5 -14 -2 -10 4 -13 2 -10 -8 3 -7 -9 -33 -26 -57 -30 -40 -35 -43 -67 -37 -24 3 -46 17 -67 42 -23 27 -34 33 -38 23 -4 -10 -6 -8 -6 5 -1 11 -6 16 -14 13 -8 -3 -14 1 -14 9 0 7 5 11 11 8 6 -3 4 0 -5 8 -19 16 -44 60 -41 72 2 5 -4 6 -13 2 -9 -3 -14 -2 -11 2 3 5 -1 20 -9 35 -10 20 -12 52 -8 124 3 54 5 112 4 128 0 20 2 25 8 17 6 -10 10 -9 14 7 3 12 1 19 -4 15 -5 -3 -9 -1 -9 5 0 5 9 13 20 16 11 4 18 10 15 15 -3 5 4 15 15 23 12 8 32 30 46 48 13 18 24 29 24 25 0 -5 12 3 26 18 15 14 31 26 35 26 5 0 9 4 9 9 0 5 -15 1 -34 -8 -22 -11 -31 -21 -28 -31 5 -13 3 -13 -11 -1 -16 12 -22 8 -18 -13 1 -5 -5 -6 -13 -3 -18 7 -42 -18 -26 -28 10 -6 14 1 11 18 -1 5 3 6 9 2 6 -4 6 -12 -2 -25 -11 -17 -13 -17 -24 -2 -11 15 -13 14 -28 -1 -10 -9 -14 -17 -10 -17 4 0 -1 -7 -12 -15 -10 -8 -15 -15 -10 -15 5 0 0 -8 -11 -17 -32 -28 -55 -82 -51 -119 2 -18 1 -31 -3 -28 -10 6 0 -139 10 -146 4 -3 8 -13 8 -22 0 -34 57 -128 78 -128 10 0 52 -42 47 -47 -1 -2 1 -3 4 -2 3 0 13 -8 22 -19 9 -10 23 -17 31 -14 9 3 11 0 6 -9 -5 -8 -5 -11 0 -7 4 4 19 -2 33 -13 17 -13 28 -16 32 -8 5 7 9 5 13 -6 4 -9 3 -13 -3 -10 -14 9 -13 -8 2 -23 8 -8 8 -15 -2 -27 -7 -8 -9 -15 -5 -15 4 0 -5 -16 -19 -35 -15 -19 -22 -35 -17 -35 6 0 7 -8 4 -17 -6 -16 -5 -17 13 -3 19 14 19 14 0 -8 -20 -23 -32 -30 -21 -12 3 6 1 10 -4 10 -6 0 -11 -11 -11 -25 0 -14 -5 -25 -11 -25 -6 0 -9 -6 -6 -14 3 -8 1 -17 -6 -20 -8 -3 -8 -5 2 -5 11 -1 11 -4 1 -15 -6 -8 -13 -49 -14 -91 -2 -42 -6 -79 -10 -82 -3 -3 -6 -20 -6 -37 0 -25 2 -28 11 -16 9 12 10 11 4 -5 -8 -24 -9 -26 -7 -88 1 -29 6 -46 12 -42 6 4 11 -8 12 -27 2 -50 2 -51 19 -75 9 -13 19 -20 24 -15 4 4 6 0 3 -9 -3 -8 -1 -24 6 -35 13 -24 113 -115 102 -94 -4 8 -1 6 8 -4 18 -22 64 -28 86 -12 13 9 13 9 2 -6 -15 -19 -10 -23 38 -28 100 -11 197 -1 234 23 16 11 26 13 26 6 0 -7 9 -5 25 5 13 9 33 16 45 16 12 0 20 7 20 17 0 9 3 13 6 10 4 -3 16 -1 28 5 11 7 24 13 29 14 4 1 9 3 12 4 3 1 8 3 13 4 4 0 21 11 37 22 25 19 27 24 16 38 -12 14 -16 13 -42 -6 -15 -12 -26 -25 -23 -29 2 -4 -1 -11 -7 -15 -8 -4 -9 -3 -5 4 13 22 -11 12 -28 -10 -9 -13 -14 -17 -11 -10 8 16 -6 15 -31 -3 -12 -8 -24 -11 -28 -8 -3 3 -6 -2 -6 -13 0 -12 -3 -15 -8 -7 -5 8 -13 9 -22 3 -8 -6 -27 -10 -42 -10 -16 0 -28 -4 -28 -9 0 -5 -18 -8 -40 -8 -22 0 -42 -1 -44 -4 -2 -2 -28 -2 -57 0 -34 2 -47 6 -38 12 10 6 8 9 -9 9 -27 0 -115 53 -105 64 4 4 0 4 -9 1 -9 -4 -18 0 -22 10 -4 11 -2 14 6 9 6 -4 3 5 -8 19 -10 15 -22 27 -26 27 -4 0 -5 7 -2 15 4 8 -1 17 -10 21 -9 3 -13 10 -10 15 2 5 -1 19 -7 31 -19 35 -21 266 -2 302 10 20 11 26 2 20 -9 -5 -10 -2 -4 12 4 10 8 26 9 36 1 9 8 23 14 31 7 8 14 29 15 46 1 17 5 31 8 31 7 0 21 53 23 87 1 12 5 25 9 29 4 5 5 0 1 -11 -6 -18 -4 -17 20 4 26 24 98 38 121 23 5 -4 32 -8 59 -9 27 -1 60 -4 73 -8 19 -4 23 -3 17 7 -6 10 -3 9 9 -1 9 -7 25 -11 36 -8 10 2 26 0 36 -6 12 -6 16 -6 11 1 -3 6 -2 13 4 17 5 3 10 2 10 -4 0 -5 10 -7 23 -4 12 3 34 6 50 6 15 1 27 5 27 9 0 4 14 6 30 4 17 -2 30 0 30 4 0 5 10 6 23 2 20 -5 21 -4 8 11 -18 22 -3 22 22 0 12 -11 17 -12 12 -4 -6 11 -3 13 13 9 12 -4 20 -2 17 2 -7 11 28 22 48 15 8 -4 21 0 28 8 7 8 21 12 31 9 10 -2 18 1 18 8 0 7 7 10 15 6 9 -3 15 0 15 8 0 9 7 12 20 9 14 -4 20 0 20 11 0 10 6 13 15 10 8 -4 21 -1 29 5 7 6 17 7 21 3 5 -4 5 -1 1 6 -4 7 -12 10 -17 6 -18 -11 -70 -14 -63 -3 9 15 -39 -13 -49 -28 -4 -7 -14 -10 -22 -7 -8 4 -15 1 -15 -6 0 -7 -7 -10 -15 -6 -18 7 -47 -3 -40 -14 2 -4 -7 -8 -20 -9 -57 -4 -65 -6 -65 -14 0 -4 -5 -5 -10 -2 -6 4 -17 1 -25 -5 -8 -7 -15 -9 -15 -5 0 4 -8 1 -17 -6 -15 -12 -16 -12 -8 1 8 13 7 13 -8 1 -9 -7 -26 -11 -37 -8 -11 3 -22 1 -25 -3 -3 -5 -14 -7 -25 -5 -11 2 -20 -2 -20 -8 0 -8 -3 -8 -9 2 -5 8 -19 11 -37 7 -38 -7 -143 -8 -219 -1 -74 6 -97 28 -89 83 3 21 15 45 27 56 12 10 22 22 22 26 0 4 19 33 43 64 23 32 39 62 36 68 -4 6 -3 8 2 5 6 -3 16 -2 24 4 12 7 9 9 -10 9 -25 1 -25 1 -2 10 12 5 22 14 22 20 0 6 5 8 10 5 6 -3 10 1 10 9 0 9 5 16 11 16 5 0 8 4 4 9 -3 5 4 12 15 16 11 3 20 11 20 17 0 6 8 17 18 25 10 9 11 12 2 7 -9 -4 -12 -3 -7 2 5 5 12 9 15 9 16 1 32 17 26 27 -4 6 -2 8 3 5 6 -4 19 3 29 15 11 12 14 19 8 15 -6 -3 -11 0 -11 7 0 7 7 13 16 12 9 0 15 5 13 12 -1 8 2 11 8 7 5 -3 10 -1 10 5 0 6 4 9 9 6 14 -9 33 21 26 43 -3 10 -1 22 4 26 6 3 8 0 5 -8 -3 -8 0 -18 6 -22 6 -4 9 -1 8 7 -2 8 4 12 15 10 9 -2 16 1 15 6 -2 5 13 22 32 38 19 16 30 23 26 15 -7 -10 -5 -12 3 -7 7 5 10 14 7 22 -3 9 0 11 11 7 12 -5 14 -3 8 7 -5 8 -4 11 2 7 14 -9 55 23 50 37 -3 7 1 13 8 13 8 0 11 -7 7 -16 -5 -14 -3 -14 11 -2 9 7 14 17 12 22 -3 4 6 16 20 25 21 14 23 19 13 33 -12 14 -11 15 6 1 17 -14 17 -15 -8 -37 -31 -26 -22 -31 12 -7 12 8 22 23 23 32 0 10 3 12 6 5 2 -7 9 -13 14 -13 6 0 8 4 5 8 -2 4 6 9 19 10 30 2 97 41 89 53 -3 5 2 6 10 3 9 -3 14 -10 11 -14 -3 -5 6 -3 19 3 13 7 23 14 21 17 -2 3 9 6 23 7 15 0 28 6 30 12 2 7 10 8 20 2 10 -5 47 -8 84 -6 37 2 70 0 73 -5 3 -5 16 -5 31 0 15 6 23 6 19 1 -6 -11 30 -25 44 -17 11 7 61 -49 61 -70 0 -8 4 -13 8 -10 4 2 9 -5 9 -16 1 -11 12 -32 25 -46 13 -14 17 -22 10 -18 -10 6 -11 -2 -6 -36 4 -28 2 -38 -4 -30 -7 11 -11 8 -16 -13 -4 -14 -4 -30 -1 -35 4 -6 2 -10 -3 -10 -10 0 -35 -59 -26 -61 2 -1 8 -2 13 -3 5 0 13 -4 17 -8 13 -14 24 -8 17 9 -5 12 -3 14 8 8 8 -4 11 -5 7 -1 -3 4 0 23 8 43 12 27 12 38 3 49 -10 12 -10 15 1 12 17 -4 21 60 6 81 -8 11 -8 13 2 7 16 -9 16 16 0 32 -9 9 -9 12 2 12 10 0 8 4 -5 14 -12 8 -16 19 -11 31 5 15 4 16 -9 5 -13 -11 -15 -10 -10 2 11 27 -103 106 -123 86 -6 -6 -12 -5 -17 3 -6 8 -4 10 5 4 8 -5 11 -4 6 3 -11 18 -61 9 -60 -11 1 -9 -3 -14 -8 -11 -5 3 -7 12 -4 20 4 9 -2 14 -17 15 -12 0 -42 2 -67 3 -25 2 -65 -1 -90 -6z"/>
    <path d="M3380 3786 c0 -2 8 -10 18 -17 15 -13 16 -12 3 4 -13 16 -21 21 -21 13z"/>
    <path d="M3396 3400 c-14 -22 -26 -43 -26 -48 0 -4 -8 -15 -17 -23 -29 -26 -74 -79 -66 -79 4 0 -12 -14 -35 -31 -23 -17 -42 -35 -42 -39 0 -5 -8 -11 -18 -14 -22 -7 -25 -33 -5 -40 9 -4 11 -1 7 6 -5 7 -2 9 9 5 20 -8 39 15 31 39 -5 16 -4 16 5 4 10 -13 12 -13 21 0 5 8 10 11 10 5 0 -5 5 -2 11 8 5 9 8 21 5 25 -3 5 7 21 20 38 l26 29 -21 -32 c-16 -24 -18 -33 -9 -39 7 -4 10 -4 7 0 -6 7 30 51 42 51 6 0 109 114 109 121 0 3 -6 2 -12 -2 -10 -6 -10 -5 -1 8 7 8 10 18 6 22 -4 4 1 4 12 0 16 -6 18 -4 8 6 -25 27 -50 21 -77 -20z m-171 -240 c3 -5 1 -10 -4 -10 -6 0 -11 5 -11 10 0 6 2 10 4 10 3 0 8 -4 11 -10z"/>
    <path d="M3285 2842 c2 -13 -3 -18 -18 -19 -12 0 -16 1 -9 4 6 3 12 10 12 16 0 6 -11 0 -25 -13 -14 -13 -23 -26 -20 -28 6 -6 -27 -62 -37 -62 -4 0 -5 -9 -3 -21 3 -16 0 -19 -12 -15 -14 6 -14 4 -2 -11 8 -9 9 -14 3 -10 -16 9 -38 -19 -28 -35 4 -7 4 -10 -1 -6 -13 12 -35 -12 -35 -38 0 -13 -5 -24 -11 -24 -5 0 -7 5 -3 12 4 7 3 8 -5 4 -6 -4 -9 -11 -6 -16 3 -4 -1 -10 -7 -13 -10 -3 -10 -7 1 -21 8 -9 11 -19 7 -23 -3 -3 -6 -2 -6 4 0 6 -7 14 -16 17 -8 3 -12 2 -9 -4 3 -6 1 -10 -6 -10 -7 0 -10 -3 -7 -6 3 -3 -16 -29 -43 -57 -27 -29 -49 -56 -49 -60 0 -5 -5 -5 -10 -2 -6 4 -9 1 -8 -7 2 -7 -2 -12 -9 -11 -6 2 -14 -5 -17 -15 -6 -17 -88 -92 -101 -92 -3 0 -18 -11 -33 -25 -15 -13 -40 -36 -57 -49 -27 -22 -28 -25 -12 -32 11 -4 24 0 35 10 9 9 26 23 37 31 17 13 18 16 5 25 -8 5 -10 10 -5 10 6 0 17 -6 24 -12 11 -10 13 -10 7 0 -4 6 -2 12 4 12 6 0 15 10 20 23 5 12 9 16 9 9 1 -7 6 -10 11 -7 6 4 8 11 5 16 -4 5 -2 9 4 9 5 0 24 16 43 35 18 20 44 48 58 62 14 15 25 32 25 38 1 5 6 9 13 8 6 -2 17 5 23 15 11 17 13 17 40 -7 16 -14 29 -30 29 -36 0 -5 -5 -3 -10 5 -8 12 -10 10 -10 -11 0 -14 -4 -29 -10 -35 -5 -5 -11 -18 -13 -29 -2 -11 -7 -28 -11 -37 -4 -9 -4 -22 0 -29 4 -8 3 -9 -4 -5 -8 5 -12 0 -12 -13 0 -11 -5 -23 -11 -26 -6 -4 -8 -14 -5 -22 3 -8 2 -12 -3 -9 -9 6 -24 -30 -22 -51 1 -7 -3 -13 -9 -13 -6 0 -9 -4 -5 -9 3 -5 1 -12 -4 -16 -6 -3 -7 -13 -4 -22 4 -10 2 -14 -4 -10 -11 7 -28 -22 -18 -31 3 -3 5 1 5 8 0 7 2 11 5 8 9 -8 -6 -38 -16 -32 -5 3 -6 -3 -2 -12 4 -11 3 -15 -5 -10 -6 3 -20 -4 -31 -16 -12 -12 -21 -18 -21 -13 0 5 -6 0 -14 -10 -10 -14 -10 -22 -2 -31 6 -6 13 -10 16 -9 14 8 9 -54 -5 -65 -8 -7 -15 -20 -15 -29 0 -9 -14 -42 -30 -75 -16 -32 -27 -62 -24 -67 3 -5 1 -9 -4 -9 -15 0 -94 -159 -88 -176 3 -9 2 -12 -5 -9 -5 4 -15 -7 -22 -24 -6 -17 -14 -31 -18 -31 -4 0 -12 -13 -19 -30 -7 -17 -17 -30 -22 -30 -5 0 -7 -4 -4 -9 4 -5 2 -11 -3 -13 -5 -1 -11 -10 -13 -18 -2 -8 -13 -26 -26 -40 -13 -14 -21 -33 -18 -43 3 -14 1 -16 -9 -7 -10 8 -15 4 -24 -20 -6 -18 -15 -29 -21 -25 -16 10 -12 -2 7 -21 16 -16 16 -16 -4 -10 -13 4 -25 1 -34 -11 -13 -17 -13 -17 6 -3 19 14 19 14 6 -3 -7 -9 -20 -17 -27 -17 -7 0 -22 -12 -31 -27 -19 -30 -93 -109 -77 -83 5 9 0 5 -12 -8 -12 -13 -30 -29 -41 -35 -78 -45 -110 -61 -121 -59 -7 2 -14 -3 -17 -10 -6 -16 -123 -12 -144 5 -12 10 -13 9 -6 -2 5 -9 -2 -8 -24 5 -17 10 -31 25 -31 33 0 8 -3 11 -7 8 -3 -4 -15 12 -26 36 -26 53 -26 157 -1 213 19 43 18 40 9 69 -5 13 -4 16 2 7 7 -9 15 -6 34 15 13 14 17 22 9 18 -13 -8 -13 -6 -1 8 7 9 18 14 25 10 6 -3 8 -3 4 2 -4 4 0 14 10 22 13 10 13 12 2 10 -8 -2 -12 -2 -7 0 4 3 5 9 2 14 -4 5 2 6 11 2 12 -4 15 -3 10 6 -5 7 -2 10 6 9 7 -2 13 5 13 14 0 9 4 20 9 25 6 5 6 2 1 -7 -5 -8 5 -2 22 14 19 17 29 36 26 45 -4 14 -3 14 6 1 9 -13 12 -12 17 7 4 14 11 20 22 16 10 -4 13 -2 8 5 -4 7 -2 12 4 12 6 0 9 4 5 9 -3 5 0 13 6 17 8 4 9 3 5 -4 -4 -7 -3 -12 3 -12 5 0 14 7 19 16 5 9 12 15 15 15 17 -2 19 0 8 13 -9 11 -9 16 0 22 7 4 9 3 5 -4 -3 -6 -2 -13 3 -17 13 -8 34 32 25 48 -4 6 2 4 14 -7 19 -17 22 -17 28 -3 3 9 14 19 25 22 10 4 19 11 19 18 0 8 -3 8 -12 -1 -15 -15 -28 -15 -28 0 0 6 3 8 7 5 3 -4 12 -2 19 4 8 7 14 7 19 -1 9 -14 35 6 35 27 0 13 2 13 17 2 11 -10 14 -10 9 -1 -4 7 -1 12 8 12 18 0 21 16 6 25 -5 3 -10 1 -10 -4 0 -6 -3 -10 -7 -9 -15 4 -53 -13 -53 -23 0 -6 6 -7 13 -3 6 4 9 3 5 -1 -5 -5 -20 -10 -35 -11 -16 -2 -35 -12 -44 -23 -9 -11 -19 -17 -23 -14 -3 4 -15 -2 -26 -13 -32 -32 -50 -45 -50 -37 -1 4 -9 -2 -19 -14 -10 -12 -22 -19 -25 -15 -4 3 -4 -2 0 -12 5 -12 4 -17 -3 -13 -5 3 -20 -3 -31 -14 -12 -10 -25 -20 -29 -22 -5 -1 -7 -6 -5 -11 2 -5 -5 -6 -14 -2 -15 6 -15 4 -3 -11 8 -9 9 -14 3 -10 -12 7 -54 -19 -54 -34 0 -6 4 -7 10 -4 6 4 7 -1 3 -11 -4 -11 -8 -13 -11 -6 -2 7 -9 12 -15 12 -5 0 -7 -3 -4 -7 4 -3 -2 -12 -13 -20 -11 -8 -20 -21 -20 -29 0 -8 -5 -12 -10 -9 -6 4 -9 1 -8 -7 2 -7 -3 -12 -10 -10 -8 1 -11 -2 -8 -7 3 -5 -1 -11 -9 -15 -9 -3 -12 -12 -8 -22 5 -12 3 -15 -6 -9 -11 6 -11 3 0 -16 11 -22 11 -23 -5 -10 -14 12 -16 12 -10 -3 3 -9 2 -16 -3 -16 -6 0 -15 -17 -21 -38 -16 -54 -25 -115 -15 -109 4 3 6 -16 5 -43 -2 -27 2 -58 9 -71 7 -13 12 -27 11 -31 -1 -4 6 -4 16 -1 15 6 16 5 2 -13 -8 -10 -10 -16 -6 -12 5 4 15 0 23 -10 9 -10 12 -11 7 -2 -4 9 2 7 13 -5 11 -11 19 -23 17 -26 -4 -7 24 -16 76 -27 21 -4 142 -4 188 0 6 1 12 6 12 11 0 5 7 7 15 4 8 -4 17 -2 21 4 3 6 12 8 20 5 8 -3 14 -1 14 4 0 5 9 12 20 15 11 4 18 11 15 16 -3 5 0 6 8 3 9 -3 22 4 30 17 11 14 22 20 36 16 12 -3 19 0 18 6 -1 6 8 15 20 22 27 14 142 133 135 140 -3 3 1 5 9 5 19 1 52 47 43 62 -5 7 -2 9 9 5 11 -4 14 -2 11 7 -3 8 0 17 7 22 8 5 10 3 4 -6 -5 -9 -4 -11 4 -6 6 4 9 11 6 16 -3 5 2 16 11 24 8 9 13 16 10 16 -3 0 8 14 24 31 27 30 48 75 29 63 -5 -3 -6 3 -2 12 5 13 3 15 -8 9 -8 -5 -11 -4 -6 0 12 14 38 15 30 2 -3 -7 3 -4 15 7 17 14 19 23 11 37 -8 15 -6 17 8 12 10 -3 15 -3 11 1 -4 5 1 22 11 40 16 28 17 34 3 56 -12 22 -12 23 1 8 18 -22 31 -23 23 -2 -3 8 -2 12 4 9 9 -6 12 -2 14 28 1 6 9 20 19 30 10 10 15 22 12 27 -4 6 -2 10 4 10 8 0 21 24 26 50 12 54 18 69 28 63 7 -3 9 -3 5 2 -4 4 -1 20 7 35 8 15 11 30 8 33 -3 4 0 13 7 22 7 8 9 15 4 15 -5 0 -3 4 4 9 8 5 15 20 15 35 1 14 5 26 10 26 4 0 7 9 7 19 0 11 4 22 10 26 5 3 6 13 3 22 -4 10 -2 14 4 10 6 -4 22 6 35 21 13 16 32 33 42 39 16 9 16 10 0 24 -16 12 -17 12 -10 -1 4 -8 -1 -4 -12 9 -21 26 -18 54 14 114 8 15 13 27 9 27 -3 0 1 12 8 28 7 15 12 35 9 46 -3 12 0 16 8 11 9 -6 9 -2 1 14 -9 17 -9 20 2 15 8 -3 17 2 21 11 3 10 2 13 -4 10 -6 -4 -2 8 8 27 10 18 22 51 26 73 4 21 14 52 22 68 12 22 13 32 3 43 -10 12 -9 13 6 8 13 -5 16 -4 11 4 -4 7 -3 12 2 12 5 0 20 21 33 48 13 26 29 51 36 55 7 4 13 15 13 23 0 8 4 13 9 9 13 -7 24 31 16 56 -4 11 -9 18 -12 15 -3 -3 -14 -1 -24 4 -14 8 -17 7 -14 -8z"/>
  </g>
</svg>
